<svg xmlns="http://www.w3.org/2000/svg" xmlns:xlink="http://www.w3.org/1999/xlink" width="512" height="512" x="0" y="0" viewBox="0 0 512 512" style="enable-background:new 0 0 512 512" xml:space="preserve" class=""><g><path d="M278.606 32.167c15.052 4.025 28.488 11.934 39.202 22.62l19.19-11.083 22.62 39.202-19.19 11.083a87.428 87.428 0 0 1 0 45.24l19.19 11.083-22.62 39.174-19.19-11.083c-10.715 10.686-24.151 18.623-39.202 22.648v22.167h-45.24v-22.167c-15.052-4.025-28.488-11.962-39.174-22.648l-19.219 11.083-22.62-39.174 19.19-11.083c-1.928-7.2-2.948-14.797-2.948-22.62s1.02-15.42 2.948-22.62l-19.19-11.083 22.62-39.202 19.219 11.083a87.266 87.266 0 0 1 39.174-22.62V10h45.24v22.167z" style="stroke-width:20;stroke-linecap:round;stroke-linejoin:round;stroke-miterlimit:10;" fill="none" stroke="#ffffff" stroke-width="20" stroke-linecap="round" stroke-linejoin="round" stroke-miterlimit="10" data-original="#000000" opacity="1"></path><path d="M255.986 159.893c23.867 0 43.313-19.445 43.313-43.284 0-23.867-19.445-43.313-43.313-43.313-23.839 0-43.284 19.445-43.284 43.313 0 23.839 19.445 43.284 43.284 43.284h0zM109.721 394.597h292.53v50.654h-292.53zM388.645 331.273H123.327M255.986 502v-56.749M351.653 502H160.347" style="stroke-width:20;stroke-linecap:round;stroke-linejoin:round;stroke-miterlimit:10;" fill="none" stroke="#ffffff" stroke-width="20" stroke-linecap="round" stroke-linejoin="round" stroke-miterlimit="10" data-original="#000000" opacity="1"></path><path d="m136.933 267.919-27.212 126.678h292.53l-27.212-126.678zM255.986 394.597V267.919M105.923 116.609H10v214.664h71.914M406.077 116.609H502v214.664h-71.942" style="stroke-width:20;stroke-linecap:round;stroke-linejoin:round;stroke-miterlimit:10;" fill="none" stroke="#ffffff" stroke-width="20" stroke-linecap="round" stroke-linejoin="round" stroke-miterlimit="10" data-original="#000000" opacity="1"></path></g></svg>