<svg xmlns="http://www.w3.org/2000/svg" xmlns:xlink="http://www.w3.org/1999/xlink" width="512" height="512" x="0" y="0" viewBox="0 0 512 512" style="enable-background:new 0 0 512 512" xml:space="preserve" class=""><g><path d="M187.757 108.445 175.654 96.37M317.61 108.445l12.104-12.075M252.669 81.545V64.452M203.716 170.353h0c0-27.042 21.911-48.953 48.953-48.953s48.982 21.911 48.982 48.953h0M125.311 280.675v44.106h254.745v-44.106l-23.697-110.322H149.008zM368.207 225.514H137.16M252.669 374.188v-49.407M335.978 374.188H169.389M252.669 280.675V170.353M125.311 280.675h254.745" style="stroke-width:20;stroke-linecap:round;stroke-linejoin:round;stroke-miterlimit:10;" fill="none" stroke="#ffffff" stroke-width="20" stroke-linecap="round" stroke-linejoin="round" stroke-miterlimit="10" data-original="#000000" opacity="1"></path><path d="M61.76 78.484 256.014 10 450.24 78.484V251.45c0 106.836-75.4 196.834-194.226 250.55C137.16 448.284 61.76 358.286 61.76 251.45V78.484z" style="stroke-width:20;stroke-linecap:round;stroke-linejoin:round;stroke-miterlimit:10;" fill="none" stroke="#ffffff" stroke-width="20" stroke-linecap="round" stroke-linejoin="round" stroke-miterlimit="10" data-original="#000000" opacity="1"></path></g></svg>