<svg xmlns="http://www.w3.org/2000/svg" xmlns:xlink="http://www.w3.org/1999/xlink" width="512" height="512" x="0" y="0" viewBox="0 0 512 512" style="enable-background:new 0 0 512 512" xml:space="preserve" class=""><g><path d="M154.111 178.233h203.778M255.986 120.719v281.192M164.882 120.719h182.236l21.514 115H143.339zM182.4 401.911h147.2c10.857 0 19.729 8.872 19.729 19.729v6.378c0 10.856-8.872 19.729-19.729 19.729H182.4c-10.856 0-19.729-8.872-19.729-19.729v-6.378c0-10.857 8.872-19.729 19.729-19.729h0z" style="stroke-width:20;stroke-linecap:round;stroke-linejoin:round;stroke-miterlimit:10;" fill="none" stroke="#ffffff" stroke-width="20" stroke-linecap="round" stroke-linejoin="round" stroke-miterlimit="10" data-original="#000000" opacity="1" class=""></path><path d="M309.219 447.746v27.127c0 14.91-12.189 27.127-27.127 27.127h-52.213c-14.91 0-27.127-12.217-27.127-27.127v-27.127M463.308 66.975l17.659-17.659M477.027 186.567H502M463.308 306.158l17.659 17.66M48.664 66.975 31.033 49.316M34.973 186.567H10M48.664 306.158l-17.631 17.66M194.787 401.911v-20.579c0-29.366-16.015-44.078-31.946-54.339-47.536-30.642-79.057-84.046-79.113-144.819C83.813 87.073 160.914 10 255.986 10c95.101 0 172.173 77.073 172.286 172.173-.085 60.774-31.577 114.177-79.142 144.819-15.93 10.261-31.946 24.973-31.946 54.339v20.579" style="stroke-width:20;stroke-linecap:round;stroke-linejoin:round;stroke-miterlimit:10;" fill="none" stroke="#ffffff" stroke-width="20" stroke-linecap="round" stroke-linejoin="round" stroke-miterlimit="10" data-original="#000000" opacity="1" class=""></path></g></svg>